<?xml version="1.0" encoding="UTF-8" standalone="no"?>
<!-- Created with Inkscape (http://www.inkscape.org/) -->

<svg
   xmlns:dc="http://purl.org/dc/elements/1.1/"
   xmlns:cc="http://creativecommons.org/ns#"
   xmlns:rdf="http://www.w3.org/1999/02/22-rdf-syntax-ns#"
   xmlns:svg="http://www.w3.org/2000/svg"
   xmlns="http://www.w3.org/2000/svg"
   version="1.1"
   width="64"
   height="64"
   id="svg3099">
  <defs
     id="defs3101" />
  <metadata
     id="metadata3104">
    <rdf:RDF>
      <cc:Work
         rdf:about="">
        <dc:format>image/svg+xml</dc:format>
        <dc:type
           rdf:resource="http://purl.org/dc/dcmitype/StillImage" />
        <dc:title></dc:title>
      </cc:Work>
    </rdf:RDF>
  </metadata>
  <g
     id="layer1">
    <g
       transform="matrix(0.1085096,0,0,0.1085096,75.150575,-62.850211)"
       id="g4566">
      <path
         d="m -284.66528,617.17537 c -25.7014,1.9154 -53.3196,1.7028 -76.5822,14.0159 -32.4894,22.8248 -44.1265,63.1866 -56.6948,98.8687 -4.9143,8.4596 2.4498,16.9758 11.4273,16.3518 35.3012,2.8493 71.4626,-3.9404 106.3186,0.7576 6.4032,6.3193 10.5308,19.8342 -0.1263,24.4962 -37.8051,17.974 -80.8723,17.7552 -120.7132,29.547 -66.8748,19.8741 -126.2782,58.0916 -190.8557,83.9058 -13.5859,6.9889 -32.7527,8.9785 -41.29,22.9809 -3.7748,7.049 7.8341,12.5186 1.6415,18.6878 -5.2181,7.8911 -14.1785,22.7255 -0.6313,27.4636 26.1891,7.6967 55.4531,4.0496 79.7362,-8.2644 27.4221,-10.8743 56.3187,-25.0688 86.2445,-20.7144 3.6821,25.4189 2.5459,52.0542 0.505,77.52923 -1.9619,9.5639 -16.2439,17.8928 -10.7328,27.9686 6.0614,4.7991 15.0515,-0.9836 20.5818,-0.4419 7.8237,19.2286 32.7557,14.9815 49.3712,16.2256 58.2387,0.1213 116.806,0.8003 174.7564,-5.3033 17.6511,-0.4486 8.0264,-16.0069 -4.9245,-14.5841 -31.7381,-10.2876 -64.4275,6.0893 -96.217,2.5254 -16.3905,-9.6131 -21.173,-30.62843 -30.1246,-46.22553 -6.0531,-15.2248 -16.2966,-32.181 -11.4179,-48.9814 15.8493,-13.7282 27.9043,-31.5811 34.5977,-51.3284 21.5158,-17.5976 49.9928,-23.8163 72.471,-40.3657 18.0041,-13.1122 40.6841,-26.2199 47.0427,-49.0328 4.6415,-18.0224 -6.4184,-33.896 -18.1704,-46.2969 -13.8636,-17.734 -33.3086,-37.2754 -30.5063,-61.4737 2.0004,-14.9846 19.1843,-17.7252 31.3778,-15.0892 37.2148,6.2943 66.9574,35.613 84.1257,68.0682 5.4091,6.2991 8.985,22.0207 19.7306,18.8049 9.7301,-14.5726 -0.091,-33.7268 -9.7227,-46.025 -16.966,-21.4371 -37.302,-40.6623 -62.1875,-52.4648 -19.0074,-11.9047 -29.4044,-38.0364 -53.0962,-41.5425 -1.9778,-0.053 -3.956,-0.2212 -5.9346,-0.063 z m -2.7779,14.2053 c 12.9765,0.7528 23.2142,12.0855 29.8626,22.3496 -16.2908,2.2457 -33.3574,3.3568 -46.9721,13.8265 -4.0198,1.8829 -11.3751,9.078 -10.9854,0.3788 -4.956,-18.0009 10.0631,-35.8746 28.0949,-36.5549 z m -48.9924,9.9752 c 6.9298,4.534 0.881,20.8688 2.9423,29.9255 -1.6192,20.7533 12.2927,38.6979 18.0815,57.0108 -25.3109,0.6709 -51.7385,3.4473 -76.4559,-1.7678 -0.7455,-27.5756 15.2733,-53.0717 32.8299,-72.9835 6.3125,-5.6434 13.8816,-11.5434 22.6022,-12.185 z m 60.7985,116.7358 c 11.281,7.339 20.4114,22.3645 12.0587,35.2291 -10.8094,16.8906 -29.4089,30.7886 -48.1085,36.7443 2.7835,-8.1182 4.9533,-19.0825 -4.8613,-23.4861 -3.9835,-3.7089 -14.3534,-3.9975 -16.2888,-5.7452 18.6239,-9.2272 46.5827,-7.8731 54.8008,-31.1253 1.8599,-3.4028 1.5614,-8.7189 2.3991,-11.6168 z m -90.2823,48.6136 c 8.7431,-1.5185 1.2047,17.2999 12.4988,14.183 6.0992,1.0894 15.888,-2.9354 20.7099,1.0324 2.2833,6.6244 -0.938,15.0456 -9.0282,13.3214 -38.5244,10.3327 -73.8811,30.8315 -113.8947,35.1028 -36.1222,5.3347 -74.2276,12.1111 -109.4122,14.8366 33.3669,-20.8386 70.9796,-34.2206 107.1803,-49.6993 30.1143,-11.0275 60.1549,-24.7385 91.9461,-28.7769 z m 1.0732,55.4952 c -32.9728,21.6287 -67.8666,40.5379 -98.9949,64.776 1.7833,-10.1898 -4.4028,-21.7613 -15.9099,-20.7712 -45.6135,-0.8808 -87.9327,18.3858 -129.1101,35.3553 -8.0091,5.0025 -19.7727,1.6536 -22.2865,-7.4498 5.991,-16.1684 26.9047,-18.1045 41.0365,-23.2333 70.4164,-17.08 144.3885,-19.7009 212.8726,-45.2196 2.3539,-0.2918 15.3488,-6.0348 12.3923,-3.4574 z m -20.645,34.1558 c -0.9584,7.8517 -7.1666,16.4829 -14.1421,19.0035 -4.0589,-2.5229 -10.2258,-7.0175 -2.3991,-9.6596 5.0217,-3.4603 10.5549,-7.3584 16.5412,-9.3439 z m -36.0498,22.9178 c 3.7478,35.181 17.0847,68.0542 31.1885,100.13143 3.6629,8.3779 -9.8324,7.4634 -14.7104,8.3338 -15.2604,0.4642 -32.0226,1.9978 -46.025,-3.9775 -14.4993,-17.5157 -9.9497,-42.75933 -9.0914,-63.89223 -0.2596,-19.8893 19.9583,-30.3184 33.9664,-40.3429 1.4923,-0.3555 5.0067,-4.1522 4.6719,-0.2526 z"
         id="path3286-1"
         style="fill:#000000" />
      <path
         d="m -159.91148,1063.0946 c -18.3892,4.9369 -24.6499,28.1225 -41.0374,36.2392 -15.614,-7.6784 -20.5804,-30.4397 -38.2595,-35.229 -15.8561,1.3766 -21.1803,20.2385 -32.6406,29.0418 -6.8242,9.2123 -15.7825,-0.8023 -20.2662,-6.8816 -7.6287,-7.0139 -13.5875,-21.0195 -25.4432,-20.5187 -16.1253,8.0533 -22.8908,29.1099 -39.5222,35.9235 -15.2924,-7.9179 -18.3754,-29.868 -34.4715,-36.1761 -13.9988,2.6676 -18.5309,19.7241 -28.5368,28.3474 -3.6437,2.9276 -9.0779,11.9574 -13.4476,4.7982 -12.5425,-10.1777 -20.2787,-26.1742 -34.4715,-33.9663 -13.9561,-0.3446 -19.1061,16.9188 -26.769,25.8851 -3.8397,5.0691 -10.5306,18.4216 -17.9934,10.6698 -12.9061,-11.7413 -22.9595,-27.342 -37.5019,-36.7443 -15.9786,8.6033 -16.3544,32.2183 -32.2617,40.7849 -10.6585,-0.4421 -14.5714,-14.5096 -21.6328,-20.8508 -7.4035,-9.0748 -18.3166,-27.5098 -32.221,-18.1664 -19.0481,17.1262 -35.2986,37.9083 -49.2449,59.3465 -1.9745,11.2963 13.8459,8.977 20.5187,6.6291 15.9393,-7.6879 21.5079,-28.4087 35.4816,-37.9438 17.5417,7.2366 23.5797,30.2567 41.9213,35.671 18.1548,-4.8151 26.6589,-26.3392 44.1311,-32.0092 15.7144,6.1418 17.0724,30.5291 34.7871,33.9032 18.4956,-1.2645 24.2525,-23.809 38.7646,-31.7567 10.8742,0.6262 15.7735,14.1139 22.0971,21.4658 5.693,12.001 21.7044,12.2946 29.6732,2.5254 9.7307,-6.8919 15.2126,-21.0635 26.7691,-24.3068 14.4125,7.1163 19.1521,30.0283 37.3125,29.9889 16.5534,-4.537 24.0802,-24.0366 39.4591,-30.0521 15.9672,5.9387 21.0186,26.9151 36.9337,32.2618 15.6574,-7.0132 23.2637,-25.8748 36.9337,-35.2922 15.3651,7.2337 20.5548,26.2514 34.9765,34.6608 13.8741,-1.422 21.1944,-16.9303 31.2773,-24.9915 5.3809,-3.6479 10.7573,-14.5943 18.3464,-11.879 15.2187,10.8573 17.02819,35.8138 36.49179,41.4162 11.3293,-0.068 9.1502,-13.6276 4.3563,-19.8242 -10.4457,-18.143 -20.1862,-38.4055 -36.68119,-51.7703 -2.4654,-1.0574 -5.1567,-1.4922 -7.8287,-1.1996 z"
         id="path3288-7"
         style="fill:#000000" />
    </g>
  </g>
</svg>
