<?xml version="1.0" encoding="UTF-8" standalone="no"?>
<!-- Created with Inkscape (http://www.inkscape.org/) -->

<svg
   xmlns:dc="http://purl.org/dc/elements/1.1/"
   xmlns:cc="http://creativecommons.org/ns#"
   xmlns:rdf="http://www.w3.org/1999/02/22-rdf-syntax-ns#"
   xmlns:svg="http://www.w3.org/2000/svg"
   xmlns="http://www.w3.org/2000/svg"
   version="1.1"
   width="64"
   height="64"
   id="svg3099">
  <defs
     id="defs3101" />
  <metadata
     id="metadata3104">
    <rdf:RDF>
      <cc:Work
         rdf:about="">
        <dc:format>image/svg+xml</dc:format>
        <dc:type
           rdf:resource="http://purl.org/dc/dcmitype/StillImage" />
        <dc:title></dc:title>
      </cc:Work>
    </rdf:RDF>
  </metadata>
  <g
     id="layer1">
    <path
       d="m 19.027601,18.102342 6.556808,-0.25713 0,2.185603 2.442732,0 0,1.414213 2.571298,0 0,3.599817 2.699862,0 0,-3.471252 2.699862,0 0,-1.671343 2.398617,0 -0.01949,-2.078212 8.097014,0 -10.902283,10.265919 -1.072052,4.000952 0,13.65288 1.626755,0 0,1.542778 0,2.185603 1.414214,0 0,1.799908 1.671343,0 0,1.799908 2.057038,0 0,1.928473 3.342687,0 0,1.928473 5.142594,0 0,2.43092 -35.869598,0 0,-2.559485 5.528289,0 0,-1.928473 2.956993,0 0,-1.928473 1.928472,0 0,-1.928473 2.057039,0 0,-1.799908 1.799907,0 0,-3.856946 1.414214,0 0,-13.267185 -1.990994,-5.007268 -9.344854,-9.344855 z"
       id="path4076"
       style="fill:#b2b2b2;fill-opacity:1;stroke:none" />
    <path
       d="m 34.5,32.03125 c 0.175196,-7.9581 12.684342,-11.326922 15.09375,-18.9375 0.841445,-2.657864 0.53125,-7.7755682 0.53125,-7.7755682 0,0 0.09345,-0.4994665 -0.05844,-0.6596475 C 49.882655,4.4645816 49.272727,4.5454545 49.272727,4.5454545 l -17.210227,0 m 0.105114,0 -17.303978,0 c 0,0 -0.453437,0.011416 -0.66821,0.2400301 C 13.980222,5.0145579 13.96875,5.5 13.96875,5.5 c 0,0 -0.310195,4.935886 0.53125,7.59375 2.409408,7.610578 14.918554,10.9794 15.09375,18.9375 m 2.46875,27.730114 17.210227,0 c 0,0 0.516025,0.01542 0.69584,-0.155421 0.194967,-0.185235 0.156433,-0.708215 0.156433,-0.708215 0,0 0.310195,-5.208614 -0.53125,-7.866478 C 47.184342,43.420672 34.675196,39.892759 34.5,31.934659 m -4.90625,0.02273 C 29.418554,39.915486 16.909408,43.420672 14.5,51.03125 c -0.841445,2.657864 -0.53125,7.957387 -0.53125,7.957387 0,0 0.05518,0.39451 0.241097,0.562438 0.184347,0.166511 0.608335,0.210288 0.608335,0.210288 l 17.349432,0"
       id="rect3181"
       style="fill:none;stroke:#484848;stroke-width:2;stroke-linejoin:miter;stroke-miterlimit:4;stroke-opacity:1;stroke-dasharray:none" />
    <rect
       width="2.4545455"
       height="2.090909"
       x="30.71703"
       y="19.61809"
       id="rect4078"
       style="fill:#b2b2b2;fill-opacity:1;stroke:none" />
    <rect
       width="2"
       height="1.8181819"
       x="24.363636"
       y="47.454544"
       id="rect4080"
       style="fill:#b2b2b2;fill-opacity:1;stroke:none" />
    <rect
       width="1.9090909"
       height="1.7272727"
       x="34.363636"
       y="40.18182"
       id="rect4082"
       style="fill:#b2b2b2;fill-opacity:1;stroke:none" />
    <rect
       width="2"
       height="1.8181819"
       x="39.11224"
       y="49.591599"
       id="rect4080-9"
       style="fill:#b2b2b2;fill-opacity:1;stroke:none" />
  </g>
</svg>
